<?xml version="1.0" encoding="UTF-8" standalone="no"?>
<!-- Created with Inkscape (http://www.inkscape.org/) -->

<svg
   width="210mm"
   height="297mm"
   viewBox="0 0 210 297"
   version="1.1"
   id="svg29"
   inkscape:version="1.1.1 (3bf5ae0d25, 2021-09-20)"
   sodipodi:docname="teleporter3D.svg"
   xmlns:inkscape="http://www.inkscape.org/namespaces/inkscape"
   xmlns:sodipodi="http://sodipodi.sourceforge.net/DTD/sodipodi-0.dtd"
   xmlns="http://www.w3.org/2000/svg"
   xmlns:svg="http://www.w3.org/2000/svg">
  <sodipodi:namedview
     id="namedview31"
     pagecolor="#ffffff"
     bordercolor="#666666"
     borderopacity="1.0"
     inkscape:pageshadow="2"
     inkscape:pageopacity="0.0"
     inkscape:pagecheckerboard="0"
     inkscape:document-units="mm"
     showgrid="false"
     inkscape:snap-global="true"
     inkscape:zoom="0.50835204"
     inkscape:cx="431.78739"
     inkscape:cy="555.71725"
     inkscape:window-width="1842"
     inkscape:window-height="1057"
     inkscape:window-x="-8"
     inkscape:window-y="-8"
     inkscape:window-maximized="1"
     inkscape:current-layer="layer1" />
  <defs
     id="defs26" />
  <g
     inkscape:label="Layer 1"
     inkscape:groupmode="layer"
     id="layer1">
    <rect
       style="opacity:1;fill:none;stroke-width:0.264583;-inkscape-stroke:none;stop-color:#000000"
       id="rect4461"
       width="196.73865"
       height="196.73865"
       x="5.2134233"
       y="-1.3203291" />
    <g
       id="g3116">
      <rect
         style="opacity:1;fill:#000000;stroke-width:0.199329;-inkscape-stroke:none;stop-color:#000000"
         id="rect636"
         width="101.53363"
         height="101.53363"
         x="212.12587"
         y="99.611107"
         transform="matrix(0.93321105,0.35932873,-0.93321105,0.35932873,0,0)" />
      <rect
         style="opacity:1;fill:#ff00ff;stroke-width:0.176291;-inkscape-stroke:none;stop-color:#000000"
         id="rect3094"
         width="89.798737"
         height="89.798737"
         x="226.39464"
         y="114.53657"
         transform="matrix(0.93868955,0.34476359,-0.93868955,0.34476359,0,0)" />
    </g>
    <rect
       style="opacity:1;fill:#ffff00;stroke-width:0.273609;-inkscape-stroke:none;stop-color:#000000"
       id="rect4021"
       width="14.849045"
       height="13.885488"
       x="10.943197"
       y="130.81856"
       transform="matrix(0.9351098,0.3543581,0,1,0,0)" />
    <rect
       style="opacity:1;fill:#ffff00;stroke-width:0.273609;-inkscape-stroke:none;stop-color:#000000"
       id="rect4319"
       width="14.849045"
       height="13.885488"
       x="10.943197"
       y="130.81856"
       transform="matrix(0.9351098,0.3543581,0,1,0,0)" />
    <rect
       style="opacity:1;fill:#ffff00;stroke-width:0.273609;-inkscape-stroke:none;stop-color:#000000"
       id="rect4321"
       width="14.849045"
       height="13.885488"
       x="10.943197"
       y="130.81856"
       transform="matrix(0.9351098,0.3543581,0,1,0,0)" />
    <rect
       style="opacity:1;fill:#ffff00;stroke-width:0.273609;-inkscape-stroke:none;stop-color:#000000"
       id="rect4323"
       width="14.849045"
       height="13.885488"
       x="10.943197"
       y="130.81856"
       transform="matrix(0.9351098,0.3543581,0,1,0,0)" />
    <rect
       style="opacity:1;fill:#ffff00;stroke-width:0.273609;-inkscape-stroke:none;stop-color:#000000"
       id="rect4325"
       width="14.849045"
       height="13.885488"
       x="10.943198"
       y="-151.90079"
       transform="matrix(0.9351098,-0.3543581,0,-1,0,0)" />
    <rect
       style="opacity:1;fill:#ffff00;stroke-width:0.273609;-inkscape-stroke:none;stop-color:#000000"
       id="rect4329"
       width="14.849045"
       height="13.885488"
       x="98.00312"
       y="131.63754"
       transform="matrix(0.9351098,0.3543581,0,1,0,0)" />
    <rect
       style="opacity:1;fill:#ffff00;stroke-width:0.273609;-inkscape-stroke:none;stop-color:#000000"
       id="rect4331"
       width="14.849045"
       height="13.885488"
       x="-127.13532"
       y="210.88802"
       transform="matrix(-0.93510983,0.35435803,0,1,0,0)" />
    <rect
       style="opacity:1;fill:#ffff00;stroke-width:0.273609;-inkscape-stroke:none;stop-color:#000000"
       id="rect4413"
       width="14.849045"
       height="13.885488"
       x="-213.61374"
       y="210.31026"
       transform="matrix(-0.93510983,0.35435803,0,1,0,0)" />
    <rect
       style="opacity:1;fill:#ffff00;stroke-width:0.273609;-inkscape-stroke:none;stop-color:#000000"
       id="rect4415"
       width="14.849045"
       height="13.885488"
       x="-213.61374"
       y="-72.80426"
       transform="matrix(-0.93510983,-0.35435803,0,-1,0,0)" />
    <rect
       style="opacity:1;fill:#ffff00;stroke-width:0.273609;-inkscape-stroke:none;stop-color:#000000"
       id="rect4417"
       width="14.849045"
       height="13.885488"
       x="-127.59883"
       y="-72.063232"
       transform="matrix(-0.93510983,-0.35435803,0,-1,0,0)" />
    <rect
       style="opacity:1;fill:#ffff00;stroke-width:0.273609;-inkscape-stroke:none;stop-color:#000000"
       id="rect4419"
       width="14.849045"
       height="13.885488"
       x="98.602547"
       y="-152.21942"
       transform="matrix(0.93510983,-0.35435803,0,-1,0,0)" />
  </g>
</svg>
